<svg width="64" height="64" viewBox="0 0 64 64" fill="none" xmlns="http://www.w3.org/2000/svg">
<path d="M31.4 4.9C32.5 7.4 30.9 15.8 30.9 15.8C30.9 15.8 23.4 11.4 22.3 8.9C21.2 6.4 22.3 3.5 24.8 2.4C27.3 1.3 30.3 2.4 31.4 4.9Z" fill="#64892F"/>
<path d="M33.3 16.3H30.7C30.7 12 33.1 4.7 42.7 4.7V7.3C34 7.3 33.3 15.5 33.3 16.3Z" fill="#947151"/>
<path d="M32 15.8C24.7 8.4 3 8.1 3 29.3C3 42.7 18.8 62 25.7 62C28.8 62 29.9 60 31.8 60C33.6 60 34.2 61.9 38.2 61.9C45.1 62 61 42.8 61 29.3C61 8.1 39.3 8.4 32 15.8Z" fill="#8CC63E"/>
</svg>
