<svg width="85" height="85" viewBox="0 0 85 85" fill="none" xmlns="http://www.w3.org/2000/svg">
<path d="M30.2813 54.7188C37.4531 61.8906 34.6641 76.3672 29.8828 81.2812C24.9688 86.1953 25.6328 73.8438 18.4609 66.6719C11.2891 59.5 -1.0625 60.0313 3.85157 55.25C8.63281 50.3359 23.1094 47.5469 30.2813 54.7188" fill="#F2B5B5"/>
<path d="M3.71875 55.1172C3.71875 55.1172 11.8203 55.5156 13.1484 61.8906C13.9453 65.0781 12.2187 68 14.6094 70.3906C17 72.7812 19.9219 71.0547 22.9766 71.8516C29.3516 73.3125 29.75 81.2812 29.75 81.2812C34.6641 76.3672 37.4531 61.8906 30.1484 54.7188C23.1094 47.5469 8.63281 50.3359 3.71875 55.1172" fill="#FFE6E8"/>
<path d="M54.7188 30.2812C47.5469 23.1094 50.3359 8.63281 55.1172 3.71875C60.0313 -1.19531 59.3672 11.1563 66.5391 18.3281C73.7109 25.5 86.0625 24.9688 81.1484 29.75C76.3672 34.6641 61.8906 37.4531 54.7188 30.2812" fill="#F2B5B5"/>
<path d="M81.2813 29.8828C81.2813 29.8828 73.1797 29.4844 71.8516 23.1094C71.1875 20.0547 72.9141 17.1328 70.5234 14.7422C68.1328 12.3516 65.2109 14.0781 62.1563 13.4141C55.7813 11.9531 55.3828 3.98438 55.3828 3.98438C50.4688 8.89844 47.6797 23.375 54.9844 30.5469C61.8906 37.4531 76.3672 34.6641 81.2813 29.8828Z" fill="#FFE6E8"/>
<path d="M42.5 42.5C38.7813 45.1562 33.4688 44.7578 30.1484 41.4375C27.2266 38.5156 26.5625 34.2656 28.1563 30.6797C23.5078 36.3906 22.7109 44.2266 25.8984 50.6016C37.1875 53.3906 40.375 45.0234 42.5 42.5Z" fill="#F0154F"/>
<path d="M42.5 42.5C39.8438 38.7813 40.2422 33.4688 43.6953 30.1484C46.6172 27.2266 50.8672 26.5625 54.3203 28.1563C48.6094 23.5078 40.7734 22.7109 34.3984 25.8984C31.4766 37.1875 39.9766 40.375 42.5 42.5Z" fill="#F0154F"/>
<path d="M42.5 42.5C46.3516 39.9766 51.5312 40.2422 54.8516 43.5625C57.7734 46.4844 58.4375 50.6016 56.9766 54.1875C61.4922 48.4766 62.2891 40.7734 59.2344 34.3984C47.8125 31.6094 44.625 39.9766 42.5 42.5Z" fill="#F0154F"/>
<path d="M42.6328 42.7656C45.1562 46.4844 44.7578 51.6641 41.4375 54.9844C38.5156 57.9062 34.3984 58.5703 30.8125 57.1094C36.5234 61.7578 44.2266 62.4219 50.6016 59.3672C53.3906 47.9453 45.2891 44.7578 42.6328 42.7656" fill="#F0154F"/>
<path d="M55.3828 29.0859C54.9844 28.6875 54.5859 28.4219 54.1875 28.0234C50.6016 26.5625 46.4844 27.2266 43.5625 30.0156C40.2422 33.4687 39.8437 38.6484 42.5 42.5C39.9766 40.5078 31.6094 37.3203 34.3984 25.8984C33.8672 26.1641 33.4687 26.4297 32.9375 26.6953C31.6094 27.4922 30.4141 28.4219 29.3516 29.4844L29.0859 29.75C28.6875 30.1484 28.4219 30.5469 28.0234 30.9453C26.4297 34.5312 27.0938 38.7812 30.0156 41.7031C33.3359 45.0234 38.6484 45.4219 42.3672 42.7656C40.375 45.1562 37.1875 53.6562 25.7656 50.8672C26.0312 51.3984 26.2969 51.9297 26.5625 52.3281C27.3594 53.5234 28.2891 54.7187 29.3516 55.7812L29.6172 56.0469C30.0156 56.4453 30.4141 56.7109 30.8125 57.1094C34.3984 58.5703 38.5156 57.9062 41.4375 54.9844C44.7578 51.6641 45.1562 46.4844 42.6328 42.7656C45.2891 44.7578 53.3906 48.0781 50.6016 59.2344C51.1328 58.9687 51.5312 58.7031 52.0625 58.4375C53.3906 57.6406 54.5859 56.7109 55.6484 55.6484L55.9141 55.3828C56.3125 54.9844 56.7109 54.5859 56.9766 54.1875C58.4375 50.7344 57.7734 46.4844 54.8516 43.5625C51.5312 40.2422 46.3516 39.8437 42.5 42.5C44.4922 39.9766 47.8125 31.6094 59.2344 34.3984C58.9687 34 58.8359 33.4687 58.5703 33.0703C57.7734 31.7422 56.8437 30.5469 55.6484 29.3516L55.3828 29.0859" fill="#FFE6E8"/>
</svg>
