<svg width="70" height="70" viewBox="0 0 70 70" fill="none" xmlns="http://www.w3.org/2000/svg">
<path d="M68.5014 46.9853C64.5911 63.197 46.458 72.7301 27.9999 68.278C9.54174 63.8259 -2.25176 47.0745 1.65854 30.8628C5.56883 14.6511 23.702 5.11793 42.1601 9.57004C60.6182 14.0222 72.4117 30.7735 68.5014 46.9853Z" fill="#FF473E"/>
<path d="M49.3813 16.5644C49.2169 16.6006 49.045 16.5795 48.8943 16.5044L48.7919 16.4534C48.7919 16.4534 48.719 16.4172 48.5908 16.3435C48.4656 16.2679 48.2717 16.1637 48.045 16.0177C47.9879 15.9815 47.9261 15.9444 47.865 15.9031L47.7701 15.8413L47.6726 15.7914C47.5386 15.7253 47.4044 15.6497 47.2593 15.5745C47.1099 15.5008 46.9804 15.4123 46.8089 15.3357C46.6423 15.2571 46.4773 15.17 46.304 15.085C46.2154 15.0452 46.1367 14.9912 46.0441 14.9555L45.7695 14.8411C45.6762 14.8039 45.5872 14.7617 45.4962 14.7209L45.3597 14.6591C45.3141 14.6388 45.2636 14.6258 45.2158 14.6088C45.0209 14.5458 44.8351 14.471 44.645 14.402C44.448 14.3471 44.2516 14.2902 44.0558 14.2312L43.9105 14.1874C43.8596 14.1765 43.8074 14.1676 43.7574 14.1553L43.4555 14.0863C43.3542 14.0645 43.2588 14.0358 43.1546 14.0189L42.8419 13.9656L42.5335 13.9094L42.4568 13.8951L42.3747 13.8875L42.2131 13.8664L41.8925 13.8228C41.7855 13.8089 41.6842 13.7885 41.5681 13.786C41.4567 13.7747 41.3455 13.765 41.2356 13.7514C41.1266 13.7337 41.0171 13.7211 40.9102 13.698C40.6904 13.6611 40.4592 13.6328 40.2406 13.5736C40.129 13.5506 40.0222 13.51 39.9103 13.4827C39.7962 13.4511 39.6817 13.4259 39.5689 13.3883C39.3418 13.3227 39.12 13.2337 38.8957 13.1504C38.6658 13.0691 38.4378 12.9913 38.2129 12.9075C37.988 12.8234 37.7677 12.7366 37.5426 12.6708C37.2412 12.577 36.9406 12.4808 36.6408 12.3821C36.5671 12.469 36.4918 12.5545 36.4149 12.6386C36.2826 12.7727 36.1923 12.9153 36.079 13.0419C35.9717 13.1703 35.8747 13.2917 35.7756 13.4021C35.6972 13.5064 35.6164 13.6089 35.5335 13.7096C35.4733 13.7852 35.4116 13.8595 35.3485 13.9326C35.283 14.099 35.2148 14.2642 35.1437 14.4282C35.0198 14.7118 34.8896 14.9925 34.7532 15.2703C34.7179 15.3452 34.6786 15.4189 34.6406 15.4939C34.6028 15.5715 34.5637 15.6484 34.5234 15.7247C34.2699 16.2123 34.0001 16.6913 33.7146 17.1609C33.3203 17.8165 32.8992 18.4556 32.4525 19.0766C32.2313 19.3814 32.0096 19.6759 31.7851 19.9523C31.5746 20.2172 31.3574 20.4766 31.1335 20.7303C30.7115 21.2092 30.3209 21.6014 30.0293 21.8713C29.8866 22.0073 29.7581 22.1092 29.6788 22.1807C29.6388 22.2168 29.6034 22.2415 29.5816 22.2597L29.5482 22.2846L29.4406 22.3647C28.8083 22.8359 27.9137 22.7052 27.4427 22.0728C27.3424 21.9373 27.2665 21.7853 27.2182 21.6237L27.1674 21.4513C27.1406 21.3429 27.089 21.1807 27.0468 20.9813C26.9928 20.7442 26.9471 20.5053 26.9097 20.265C26.8615 19.9617 26.8243 19.6568 26.798 19.3509C26.7693 19.0187 26.7485 18.6605 26.7446 18.2856C26.7356 17.9091 26.7457 17.5165 26.7698 17.1124C26.7941 16.7085 26.836 16.294 26.893 15.8751C26.9501 15.4559 27.0256 15.0329 27.118 14.6121C27.2104 14.1907 27.3175 13.7715 27.4474 13.3617C27.4961 13.207 27.5469 13.0538 27.6006 12.9017C27.4485 12.9279 27.2958 12.9542 27.1421 12.9802C26.6437 13.0748 26.1386 13.183 25.6289 13.2974C25.1185 13.4147 24.6062 13.5476 24.0926 13.6802C23.5822 13.8243 23.0696 13.9645 22.5649 14.1124C22.0642 14.2673 21.5615 14.4102 21.0831 14.5689C20.5982 14.7179 20.1363 14.8775 19.6886 15.0205L18.4434 15.445C18.2633 15.5124 18.0818 15.5756 17.8988 15.6346C17.725 15.6911 17.5837 15.7449 17.4344 15.7895C17.291 15.8365 17.1592 15.875 17.0328 15.9291C16.9113 15.979 16.8037 16.0178 16.7159 16.0491C16.5412 16.1122 16.4415 16.1405 16.4415 16.1405C16.3015 16.1803 16.1539 16.1858 16.0112 16.1566C15.8686 16.1273 15.7351 16.0641 15.622 15.9723C15.509 15.8805 15.4197 15.7628 15.3618 15.6292C15.3039 15.4956 15.279 15.35 15.2893 15.2048C15.2893 15.2048 15.2966 15.1014 15.3223 14.9175C15.3349 14.8254 15.3511 14.712 15.3748 14.5828C15.3884 14.5169 15.393 14.4499 15.4179 14.3702L15.4916 14.1229C15.5423 13.9481 15.6116 13.7491 15.6871 13.5487C15.7684 13.3327 15.8566 13.1194 15.9514 12.909C16.0647 12.6735 16.1846 12.4413 16.311 12.2125C16.457 11.9626 16.6107 11.7172 16.7718 11.4767C17.1184 10.9836 17.5288 10.4661 18.0201 9.97596C18.5047 9.47584 19.0721 9.00813 19.6947 8.56625C20.3432 8.11772 21.0312 7.72933 21.7503 7.40592C22.4923 7.0819 23.2783 6.81324 24.0901 6.6217C24.9054 6.44151 25.7417 6.33022 26.5748 6.30697C27.1581 6.29604 27.737 6.32529 28.302 6.39529C28.2007 6.20738 28.0873 6.02625 27.9625 5.85307C27.8879 5.74356 27.7952 5.63022 27.7076 5.50908C27.6057 5.39451 27.5099 5.27639 27.399 5.15184C27.1857 4.9082 26.9411 4.65869 26.7014 4.40932L25.9723 3.67596C25.7482 3.45064 25.526 3.22345 25.3057 2.99442C25.1042 2.78018 24.929 2.59082 24.7826 2.41869C24.6229 2.25381 24.5034 2.10096 24.4195 2.0069C24.3775 1.95986 24.347 1.9168 24.3258 1.89041L24.294 1.8494L24.226 1.76176C24.1443 1.65638 24.0898 1.53249 24.0673 1.40105C24.0448 1.26961 24.0551 1.13465 24.0971 1.0081C24.1391 0.881549 24.2117 0.767297 24.3084 0.675436C24.405 0.583574 24.5228 0.516929 24.6513 0.481388C24.6513 0.481388 24.7138 0.464161 24.8294 0.437638C24.9442 0.413712 25.1152 0.369005 25.3278 0.331408C25.5492 0.298595 25.8271 0.25088 26.1371 0.225724L26.6345 0.181154C26.8111 0.168986 26.9944 0.169669 27.1894 0.164064C27.3838 0.160236 27.5889 0.165841 27.8027 0.167892C28.0167 0.171994 28.2375 0.196329 28.4681 0.212462C28.929 0.265236 29.4232 0.335646 29.9467 0.476603C30.469 0.610451 31.0241 0.798302 31.5875 1.08104C32.1535 1.3557 32.7257 1.72416 33.2701 2.18272C33.4049 2.29947 33.5397 2.41856 33.6734 2.54037C33.8023 2.66766 33.9307 2.79754 34.058 2.92975C34.1815 3.06455 34.3038 3.20236 34.425 3.34209C34.5468 3.48168 34.6542 3.62852 34.7676 3.77467C35.029 4.12986 35.2637 4.49832 35.462 4.87033C35.6408 4.69287 35.8259 4.51992 36.0239 4.36229C36.3511 4.07791 36.7088 3.83961 37.0707 3.60172C37.2555 3.49229 37.4419 3.38554 37.6298 3.28153C37.8168 3.17297 38.0118 3.09285 38.2041 2.99988C38.9785 2.65125 39.7805 2.39668 40.5706 2.25942C41.3603 2.11682 42.139 2.06076 42.8769 2.09891C43.6155 2.13131 44.3157 2.23494 44.9589 2.40324C45.6029 2.56238 46.19 2.78756 46.7106 3.03106C47.2309 3.28317 47.685 3.551 48.0651 3.83428C48.2545 3.97592 48.4302 4.10184 48.583 4.24498C48.7374 4.38211 48.8735 4.49996 49.0034 4.6349C49.1162 4.74552 49.2247 4.86044 49.3287 4.97944C49.4022 5.07842 49.4627 5.1677 49.5115 5.24057C49.5611 5.31153 49.5964 5.37237 49.6211 5.41092L49.6583 5.47039C49.7346 5.59244 49.7802 5.73114 49.7912 5.87464C49.8022 6.01814 49.7783 6.16217 49.7215 6.29442C49.6647 6.42667 49.5768 6.5432 49.4651 6.63405C49.3535 6.7249 49.2216 6.78737 49.0805 6.81612L49.0118 6.8302C48.9668 6.83881 48.8983 6.85522 48.8127 6.86821C48.7263 6.88311 48.6199 6.90074 48.4973 6.91578C48.3864 6.94545 48.2649 6.97512 48.1346 7.00629C48.0088 7.0402 47.8529 7.07219 47.6917 7.10924C47.6104 7.12906 47.5285 7.14561 47.4435 7.16324L47.1793 7.22572C46.821 7.30776 46.4275 7.40619 46.0184 7.50641C45.6076 7.61387 45.1797 7.7201 44.7448 7.84602C44.5277 7.9044 44.3093 7.96729 44.091 8.03264L44.1757 8.07666C44.4892 8.22856 44.7928 8.43158 45.0901 8.62285L45.5295 8.91051C45.672 9.01209 45.8088 9.12803 45.9453 9.23522L46.3463 9.5602C46.4118 9.61448 46.4775 9.66657 46.541 9.7218L46.7243 9.89762C46.964 10.1341 47.2042 10.353 47.4152 10.5911C47.6113 10.829 47.8052 11.0688 47.9968 11.3105C48.042 11.3693 48.0901 11.4244 48.1312 11.4847L48.2519 11.6646C48.3309 11.7838 48.4095 11.899 48.4814 12.0165L48.6936 12.3581C48.764 12.4682 48.8158 12.5865 48.8749 12.6958C48.9878 12.9184 49.0971 13.1266 49.1924 13.3287C49.2414 13.4272 49.2837 13.5313 49.3233 13.6332L49.4387 13.9256C49.5112 14.1142 49.5808 14.2862 49.6362 14.4489L49.6777 14.5671L49.706 14.675L49.7573 14.8754C49.8243 15.1279 49.8669 15.333 49.9004 15.4699L49.947 15.6829C49.9887 15.8748 49.9526 16.0754 49.8465 16.2407C49.7404 16.4059 49.5731 16.5224 49.3813 16.5644V16.5644Z" fill="#2BA52E"/>
<path d="M59.6385 37.9888C57.9402 37.9888 56.3739 36.8797 55.8694 35.1679C54.5824 30.8007 52.2786 27.2146 49.3829 25.0703C47.6381 23.7783 47.271 21.3164 48.5632 19.5716C49.8552 17.8266 52.3171 17.4597 54.0619 18.7517C58.3233 21.9073 61.6436 26.948 63.4112 32.9453C64.025 35.0278 62.8343 37.2136 60.7518 37.8273C60.3903 37.9342 60.0154 37.9886 59.6385 37.9888V37.9888Z" fill="#FF8888"/>
</svg>
