<svg width="120" height="104" viewBox="0 0 120 104" fill="none" xmlns="http://www.w3.org/2000/svg">
<path d="M75 47.6667V86.6667C75 88.9652 73.9464 91.1696 72.0711 92.7949C70.1957 94.4202 67.6522 95.3333 65 95.3333H55C52.3478 95.3333 49.8043 94.4202 47.9289 92.7949C46.0536 91.1696 45 88.9652 45 86.6667V47.6667C45.0055 46.52 45.2735 45.3857 45.7885 44.3294C46.3034 43.2732 47.0551 42.316 48 41.5133C55.5 34.19 55 17.3333 55 17.3333H50V8.66666H70V17.3333H65C65 17.3333 64.5 34.19 72 41.5133C72.9449 42.316 73.6966 43.2732 74.2115 44.3294C74.7265 45.3857 74.9945 46.52 75 47.6667V47.6667Z" fill="black"/>
<rect x="45" y="52" width="30" height="24" fill="#F52626"/>
</svg>
