<svg width="91" height="81" viewBox="0 0 91 81" fill="none" xmlns="http://www.w3.org/2000/svg">
<path d="M39.4286 44.7209L2.85086 70.0587C2.85086 70.0587 1.63515 71.5837 2.6589 72.9063C3.68976 74.2289 7.15914 73.8872 12.7613 71.647C17.8374 69.6157 30.9187 63.585 37.2816 59.8134C41.9524 57.0417 49.076 53.403 53.4696 49.7391C55.5029 48.0494 56.6475 46.7522 57.3016 44.7335C59.3064 38.5383 55.5455 35.9691 55.5455 35.9691L39.4286 44.7209Z" fill="#ED6C31"/>
<path d="M5.04054 71.1661C9.05734 70.5396 19.9276 64.4203 25.4658 61.5916C31.004 58.763 50.2775 48.3785 52.8653 44.2336C54.3085 41.9175 55.0052 37.6587 52.7942 34.9629C50.5832 32.2671 46.3745 30.1662 40.6087 32.6595C35.2909 34.9629 24.8046 47.3913 19.5579 52.5804C12.4414 59.6236 6.10695 66.2428 3.54046 69.1221C2.66601 70.0967 2.54515 70.6029 2.54515 70.6029C2.54515 70.6029 3.4907 71.4129 5.04054 71.1661V71.1661Z" fill="#FF8D02"/>
<path d="M57.4437 26.8186C57.2589 27.9323 56.0148 28.9512 53.8251 30.6977C50.9458 33.0012 49.7656 32.8683 49.2466 34.0516C48.9267 34.792 49.5808 36.3741 51.3155 38.0637C52.8653 39.5761 54.2801 40.0634 54.863 39.9684C56.2778 39.747 57.0812 38.0637 60.0316 35.8931C62.2212 34.2858 62.9891 33.7226 64.091 33.7922C65.2001 33.8555 66.1456 34.7857 67.34 35.8931C69.1102 37.5384 72.5725 39.0192 76.1627 37.9498C80.4355 36.6715 80.6061 33.1404 81.0469 32.748C81.4877 32.3557 84.7651 32.4127 86.4642 30.6345C88.1634 28.8626 88.6539 24.5658 87.9145 23.3824C87.1752 22.1991 53.0075 13.7384 53.0075 13.7384C53.0075 13.7384 51.5572 17.4656 52.6378 20.1804C54.3441 24.4519 57.785 24.7366 57.4437 26.8186V26.8186Z" fill="#2F7C31"/>
<path d="M33.4425 43.2527C34.9639 44.4804 36.5422 43.5185 37.5802 42.5946C38.5115 41.7656 40.6798 39.8988 41.6396 39.3103C42.5994 38.7218 44.5189 37.4055 45.7773 36.5512C47.0356 35.6969 46.8934 32.8303 44.0781 33.2669C42.379 33.5327 40.4595 34.9123 38.3195 36.488C36.6275 37.7346 34.6298 39.6457 33.8122 40.6266C33.0017 41.6074 32.632 42.5946 33.4425 43.2527V43.2527ZM26.9943 49.5112C25.9492 48.581 24.9468 49.2138 23.5249 50.5933C22.103 51.9729 21.9324 52.9284 22.7713 53.6435C23.9444 54.6497 25.1956 53.384 26.198 52.3779C27.2005 51.3717 28.1673 50.5554 26.9943 49.5112V49.5112Z" fill="#FFA726"/>
<path d="M42.2652 40.3102C41.5045 40.905 41.5614 41.9365 42.443 42.8224C43.5165 43.8982 44.5473 44.8158 45.4502 45.4992C46.346 46.1763 47.512 45.8599 47.9172 45.379C48.4717 44.7209 48.3651 43.8602 47.5617 43.1009C46.8792 42.4617 45.3649 40.943 44.4691 40.3481C43.8791 39.9621 42.9833 39.7533 42.2652 40.3102V40.3102ZM29.6177 45.3853C28.5157 46.2396 29.1271 47.5812 29.9305 48.619C30.7409 49.6568 32.0348 51.011 33.5207 50.2137C35.0066 49.4163 33.6984 47.2205 33.0302 46.3409C32.3548 45.4613 31.004 44.3032 29.6177 45.3853V45.3853ZM22.8211 56.1874C21.8329 57.1493 22.558 58.2567 23.7169 59.0224C24.9255 59.8198 26.454 60.3007 27.2147 59.4211C27.9754 58.5415 26.9872 57.2632 26.0488 56.6684C25.1103 56.0672 23.7666 55.2698 22.8211 56.1874ZM10.5574 62.9838C9.37016 63.7875 10.202 65.2999 10.7849 65.9391C11.3679 66.5782 12.4414 67.4578 13.4723 66.6605C14.4747 65.8821 13.8988 64.6798 13.3372 63.8255C12.5765 62.6674 11.3181 62.4649 10.5574 62.9838V62.9838Z" fill="#ED6C31"/>
<path d="M62.8398 10.2832C63.3801 10.2009 68.641 4.67649 76.6177 8.41641C84.3172 12.0234 80.8336 17.839 81.118 18.206C81.4023 18.5731 84.7935 18.4591 86.6846 20.9841C88.7108 23.6925 88.1065 25.1923 88.1065 25.1923C88.1065 25.1923 87.3742 27.7235 83.9546 28.3247C81.7934 28.7044 79.3904 27.8374 78.715 28.1412C78.0396 28.4449 78.2031 31.2483 74.2859 32.3304C71.7976 33.0202 66.7855 32.1089 63.5152 29.3435C60.1951 26.5402 61.3255 23.5786 59.2851 22.1484C56.4484 20.1614 50.6045 17.3517 53.427 12.8524C56.6688 7.68235 62.3066 10.3655 62.8398 10.2832V10.2832Z" fill="#709921"/>
</svg>
