<svg width="75" height="75" viewBox="0 0 75 75" fill="none" xmlns="http://www.w3.org/2000/svg">
<path d="M73.2292 41.6875C72.9896 34.6125 72.7792 26.9417 72.7792 26.9417C72.7792 16.5875 57.0604 8.33958 37.5 8.33958C17.9396 8.33958 2.08333 16.7354 2.08333 27.0896C2.08333 27.0896 1.875 36.1812 1.875 42.5854C1.875 48.9896 2.2125 53.3229 2.2125 53.3229C2.4375 55.7958 3.27708 57.6062 5.40625 60.0104C6.26042 60.9771 7.72917 61.8667 8.73125 62.2C9.73125 62.5333 12.6687 61.2021 12.6687 61.2021L37.5 52.0917L46.9875 66.3229C46.9875 66.3229 48.0417 68.1854 49.6312 68.9417C51.2208 69.7 53.2229 68.9104 55.0521 68.3562C65.7187 65.1292 71.9917 60.0646 73.0042 54.8958C73.25 53.6396 73.4542 48.3167 73.2292 41.6875Z" fill="#FFAC33"/>
<path d="M37.5 8.33958C17.9396 8.33958 2.08333 16.7354 2.08333 27.0896C2.08333 31.0583 4.42708 34.7333 8.40208 37.7646L37.5 27.0896L49.2771 44.7562C63.0396 42.1833 72.9167 35.2542 72.9167 27.0896C72.9167 16.7354 57.0604 8.33958 37.5 8.33958Z" fill="#F4900C"/>
<path d="M37.5 8.33958C19.0896 8.33958 4.16667 16.2688 4.16667 26.0479C4.16667 30.0937 6.75001 33.8125 11.05 36.7937L37.5 27.0896L48.0042 42.8458C61.2604 40.5062 70.8333 33.875 70.8333 26.0479C70.8333 16.2688 55.9104 8.33958 37.5 8.33958Z" fill="#994500"/>
<path d="M37.5 8.33958C20.1729 8.33958 6.12709 15.8021 6.12709 25.0062C6.12709 29.1417 8.97917 32.9167 13.6729 35.8312L37.5 27.0896L46.7313 40.9375C59.5521 38.8417 68.8729 32.5021 68.8729 25.0062C68.8729 15.8021 54.8271 8.33958 37.5 8.33958V8.33958Z" fill="#662113"/>
<path d="M48.3958 47.6562C47.0583 45.5396 37.5 30.2229 37.5 30.2229C37.5 30.2229 15.0208 38.5792 10.6396 40.1521C8.57084 40.8938 9.06042 46.7875 9.17917 51.1875C9.40417 59.6146 10.1896 59.4792 12.4375 58.4792C17.4938 56.2333 37.5 48.9854 37.5 48.9854C37.5 48.9854 45.5854 61.1771 47.8333 64.3229C48.6542 65.4729 49.3688 66.9208 49.5188 59.2792C49.6063 54.8792 49.7438 49.7917 48.3958 47.6562Z" fill="#662113"/>
<path d="M37.7333 33.5708C37.7333 33.5708 29.6313 35.2646 29.6313 42.7854C29.6313 50.5792 37.4979 47.3917 37.4979 47.3917C37.4979 47.3917 42.1792 53.3146 43.4125 46.65C44.6042 40.2021 37.7333 33.5708 37.7333 33.5708V33.5708Z" fill="#FFAC33"/>
<path d="M37.4958 38.4042C37.4958 38.4042 33.7875 38.9563 33.7875 42.45C33.7875 46.0688 37.3833 44.8104 37.3833 44.8104C37.3833 44.8104 39.8604 47.5021 40.3042 44.1354C40.7458 40.7979 37.4958 38.4042 37.4958 38.4042V38.4042ZM55.3625 66.3875C55.1966 66.3873 55.0333 66.3475 54.8859 66.2714C54.7386 66.1953 54.6115 66.0851 54.5153 65.95C54.4191 65.8149 54.3566 65.6587 54.3329 65.4946C54.3092 65.3305 54.3251 65.163 54.3792 65.0063C55.3708 62.1292 54.7312 50.2417 54.0062 46.7313C53.9779 46.5973 53.9764 46.4591 54.0018 46.3245C54.0271 46.19 54.0789 46.0618 54.154 45.9473C54.2292 45.8329 54.3262 45.7344 54.4396 45.6576C54.553 45.5809 54.6804 45.5273 54.8146 45.5C54.9486 45.4708 55.0871 45.4687 55.2219 45.4937C55.3568 45.5187 55.4853 45.5703 55.6 45.6456C55.7146 45.7208 55.8131 45.8182 55.8897 45.932C55.9662 46.0458 56.0193 46.1738 56.0458 46.3083C56.6687 49.3188 57.5958 62.0688 56.35 65.6875C56.278 65.892 56.1444 66.0691 55.9675 66.1945C55.7907 66.3199 55.5793 66.3873 55.3625 66.3875V66.3875ZM5.24375 57.6229C4.99748 57.6229 4.75919 57.5356 4.57116 57.3766C4.38314 57.2175 4.25754 56.997 4.21666 56.7542C3.53333 52.6688 3.84375 41.8125 4.56458 38.3292C4.59015 38.1931 4.64257 38.0635 4.7188 37.948C4.79503 37.8324 4.89352 37.7332 5.00853 37.6562C5.12354 37.5791 5.25275 37.5257 5.38861 37.4992C5.52448 37.4727 5.66427 37.4735 5.79982 37.5016C5.93537 37.5297 6.06396 37.5845 6.17807 37.6629C6.29218 37.7413 6.38953 37.8416 6.46442 37.958C6.5393 38.0745 6.59023 38.2047 6.61423 38.341C6.63822 38.4773 6.6348 38.6171 6.60416 38.7521C5.92916 42.0125 5.62916 52.5813 6.27083 56.4083C6.29559 56.5576 6.28761 56.7105 6.24743 56.8563C6.20726 57.0022 6.13584 57.1376 6.03815 57.2531C5.94045 57.3687 5.8188 57.4616 5.68163 57.5254C5.54446 57.5893 5.39505 57.6226 5.24375 57.6229V57.6229ZM63.9021 62.5667C63.7362 62.5663 63.5728 62.5264 63.4255 62.4503C63.2781 62.3742 63.151 62.2641 63.0547 62.1291C62.9583 61.9941 62.8956 61.8381 62.8716 61.674C62.8476 61.5098 62.863 61.3424 62.9167 61.1854C63.9104 58.3083 63.2708 46.4208 62.5458 42.9104C62.5175 42.7765 62.516 42.6382 62.5414 42.5037C62.5667 42.3691 62.6185 42.2409 62.6936 42.1265C62.7687 42.012 62.8658 41.9136 62.9792 41.8368C63.0925 41.76 63.22 41.7065 63.3542 41.6792C63.4881 41.6509 63.6264 41.6493 63.7609 41.6747C63.8955 41.7001 64.0237 41.7518 64.1381 41.827C64.2526 41.9021 64.351 41.9992 64.4278 42.1125C64.5046 42.2259 64.5581 42.3533 64.5854 42.4875C65.2083 45.5 66.1354 58.2521 64.8875 61.8667C64.8159 62.071 64.6827 62.2481 64.5062 62.3735C64.3296 62.4988 64.1186 62.5663 63.9021 62.5667V62.5667ZM70.5333 56.725C70.3787 56.7256 70.2259 56.6918 70.086 56.6259C69.9461 56.5601 69.8226 56.464 69.7244 56.3445C69.6263 56.225 69.556 56.0852 69.5186 55.9352C69.4812 55.7851 69.4777 55.6287 69.5083 55.4771C70.2417 51.8146 70.0687 41.0917 69.3979 37.8521C69.3696 37.7181 69.3681 37.5799 69.3934 37.4453C69.4188 37.3108 69.4705 37.1826 69.5457 37.0681C69.6208 36.9537 69.7179 36.8552 69.8313 36.7785C69.9446 36.7017 70.0721 36.6481 70.2062 36.6208C70.4768 36.5671 70.7576 36.622 70.988 36.7737C71.2184 36.9253 71.3798 37.1615 71.4375 37.4313C72.1562 40.9042 72.3375 51.9625 71.5521 55.8875C71.505 56.1232 71.3778 56.3354 71.1921 56.488C71.0064 56.6407 70.7737 56.7244 70.5333 56.725V56.725Z" fill="#F4900C"/>
<path d="M13.2812 33.3333C13.0452 33.3329 12.8162 33.2529 12.6312 33.1063C8.86458 30.0979 7.1625 26.9271 7.57083 23.6813C8.37708 17.2667 17.25 13.1958 17.6271 13.0271C17.7525 12.9653 17.889 12.9294 18.0285 12.9215C18.1681 12.9136 18.3078 12.9338 18.4394 12.981C18.5709 13.0282 18.6917 13.1015 18.7943 13.1963C18.897 13.2911 18.9795 13.4057 19.037 13.5331C19.0945 13.6605 19.1258 13.7982 19.1289 13.9379C19.1321 14.0777 19.1071 14.2166 19.0554 14.3465C19.0037 14.4764 18.9265 14.5945 18.8282 14.6939C18.7299 14.7933 18.6126 14.8719 18.4833 14.925C18.4 14.9625 10.2937 18.6875 9.63541 23.9438C9.325 26.4188 10.7708 28.9542 13.9292 31.4771C14.098 31.6117 14.2208 31.7954 14.2807 32.0028C14.3406 32.2102 14.3345 32.4311 14.2634 32.635C14.1922 32.8388 14.0595 33.0155 13.8836 33.1406C13.7076 33.2657 13.4971 33.3331 13.2812 33.3333ZM55.2958 36.8063C55.0453 36.8042 54.8038 36.7121 54.6156 36.5468C54.4273 36.3814 54.3048 36.1539 54.2705 35.9057C54.2361 35.6575 54.2921 35.4053 54.4284 35.195C54.5646 34.9847 54.7719 34.8305 55.0125 34.7604C55.1062 34.7354 64.3229 32.0646 65.6458 25.825C66.9312 19.7729 57.3917 15.4042 57.2958 15.3604C57.1694 15.3055 57.0551 15.2259 56.9596 15.1265C56.8641 15.027 56.7893 14.9095 56.7396 14.7809C56.6898 14.6523 56.6661 14.5152 56.6698 14.3773C56.6734 14.2395 56.7044 14.1037 56.761 13.978C56.8175 13.8522 56.8985 13.7389 56.9991 13.6447C57.0998 13.5504 57.2181 13.4771 57.3474 13.429C57.4766 13.3808 57.614 13.3588 57.7518 13.3642C57.8896 13.3696 58.025 13.4023 58.15 13.4604C58.6083 13.6667 69.3125 18.5813 67.6833 26.2604C66.0937 33.7354 56.0021 36.6479 55.575 36.7688C55.484 36.7936 55.3901 36.8062 55.2958 36.8063V36.8063ZM33.5458 24.7333L33.6833 24.7396C34.0851 24.738 34.4708 24.5817 34.7604 24.3032C35.05 24.0246 35.2211 23.6453 35.2383 23.2438C35.2554 22.8424 35.1173 22.4498 34.8526 22.1476C34.5878 21.8453 34.2168 21.6567 33.8167 21.6208L29.9208 21.2833L31.4771 15.7167C35.175 14.8479 36.5562 13.1833 36.7583 12.9125C36.9989 12.588 37.1025 12.1819 37.0468 11.7818C36.9911 11.3817 36.7805 11.0194 36.4604 10.7729C36.136 10.5246 35.7284 10.4108 35.3222 10.455C34.9161 10.4992 34.5426 10.6981 34.2792 11.0104C34.2583 11.0354 32.0208 13.5896 24.4146 13.0375C24.0042 13.0128 23.6005 13.1509 23.2912 13.4218C22.9819 13.6927 22.7918 14.0746 22.7622 14.4847C22.7326 14.8948 22.8659 15.3 23.133 15.6125C23.4002 15.9251 23.7799 16.1197 24.1896 16.1542C25.0104 16.2146 25.7812 16.2417 26.5062 16.2417C27.0687 16.2417 27.5937 16.2208 28.1 16.1896L26.7521 21.0083L22.7937 20.6646C22.5889 20.644 22.3819 20.6647 22.1851 20.7254C21.9884 20.7861 21.8058 20.8856 21.6481 21.018C21.4904 21.1504 21.3608 21.3131 21.2671 21.4965C21.1733 21.6798 21.1172 21.8801 21.1021 22.0854C21.0663 22.4981 21.1958 22.9082 21.4623 23.2254C21.7287 23.5426 22.1102 23.7411 22.5229 23.7771L24.5396 23.9521L17.2646 29.675C17.1023 29.8013 16.9667 29.9586 16.8656 30.1376C16.7645 30.3167 16.6999 30.514 16.6755 30.7182C16.651 30.9224 16.6673 31.1294 16.7234 31.3272C16.7795 31.525 16.8742 31.7098 17.0021 31.8708C17.1289 32.0322 17.2863 32.1669 17.4652 32.2673C17.6442 32.3678 17.8412 32.4319 18.0449 32.4561C18.2487 32.4803 18.4553 32.464 18.6527 32.4083C18.8502 32.3526 19.0348 32.2584 19.1958 32.1313L24.8937 27.65L23.6271 32.1813L27.2417 30.8542L28.3021 27.0646L29.8375 29.9042L32.8021 28.8167L30.45 24.4688L33.5458 24.7333V24.7333ZM49.4292 38.5313C49.5756 38.6751 49.749 38.7886 49.9395 38.8652C50.13 38.9417 50.3337 38.9798 50.539 38.9773C50.7442 38.9748 50.947 38.9317 51.1355 38.8505C51.324 38.7693 51.4946 38.6516 51.6375 38.5042C51.7811 38.3574 51.8943 38.1838 51.9708 37.9933C52.0472 37.8028 52.0854 37.5991 52.083 37.3938C52.0807 37.1885 52.038 36.9857 51.9572 36.7969C51.8765 36.6082 51.7593 36.4372 51.6125 36.2938C48.3542 33.1146 47.8312 26.175 47.825 26.1042C47.8035 25.8641 47.7265 25.6323 47.6 25.4271C49.8312 19.3896 50.2062 13.6646 50.2312 13.2438C50.2431 13.0388 50.2144 12.8336 50.1469 12.6397C50.0794 12.4459 49.9743 12.2672 49.8377 12.114C49.7011 11.9608 49.5357 11.836 49.3508 11.7467C49.166 11.6574 48.9654 11.6055 48.7604 11.5938C48.5552 11.5799 48.3493 11.6072 48.1548 11.6738C47.9602 11.7405 47.7809 11.8452 47.6273 11.982C47.4737 12.1187 47.3488 12.2847 47.2601 12.4702C47.1714 12.6557 47.1205 12.8571 47.1104 13.0625C47.1042 13.2021 46.3396 24.7917 40.5729 31.6979L42.3687 34.3938C43.5071 33.1322 44.5046 31.7505 45.3437 30.2729C45.9646 32.9229 47.1562 36.3125 49.4292 38.5313V38.5313Z" fill="#994500"/>
<path d="M55.5646 20.5042C55.339 20.1567 54.9848 19.9131 54.5797 19.8267C54.1746 19.7404 53.7517 19.8185 53.4042 20.0438L50.1917 22.1271C49.856 22.3577 49.6236 22.7102 49.544 23.1096C49.4644 23.5089 49.5439 23.9236 49.7655 24.2653C49.9871 24.6069 50.3334 24.8486 50.7305 24.9387C51.1276 25.0289 51.5443 24.9604 51.8917 24.7479L55.1042 22.6646C55.4516 22.4391 55.6952 22.0848 55.7816 21.6797C55.8679 21.2746 55.7899 20.8518 55.5646 20.5042V20.5042ZM41.4979 23.3958C41.6403 23.5446 41.8106 23.6638 41.9992 23.7465C42.1878 23.8291 42.3908 23.8738 42.5967 23.8777C42.8026 23.8817 43.0072 23.8449 43.1988 23.7695C43.3904 23.6941 43.5652 23.5816 43.7132 23.4384C43.8612 23.2953 43.9794 23.1242 44.0611 22.9352C44.1428 22.7462 44.1863 22.5429 44.1891 22.337C44.1919 22.1311 44.1541 21.9267 44.0776 21.7355C44.0012 21.5443 43.8877 21.3701 43.7437 21.2229L41.0542 18.4458C40.9115 18.2982 40.7411 18.1802 40.5528 18.0984C40.3645 18.0167 40.162 17.9728 39.9567 17.9693C39.7515 17.9658 39.5475 18.0028 39.3566 18.0781C39.1656 18.1535 38.9913 18.2657 38.8437 18.4083C38.6961 18.551 38.5781 18.7214 38.4963 18.9097C38.4146 19.098 38.3707 19.3005 38.3672 19.5058C38.3602 19.9203 38.5181 20.3207 38.8062 20.6188L41.4979 23.3958Z" fill="#994500"/>
</svg>
