<svg width="75" height="75" viewBox="0 0 75 75" fill="none" xmlns="http://www.w3.org/2000/svg">
<path d="M47.9438 50.6708L36.3896 39.1167L24.8333 27.5625C24.8333 27.5625 25.7812 50.8604 1.53542 56.9229C1.53542 56.9229 3.68542 62.1042 8.54375 66.9625C13.4021 71.8208 18.5833 73.9708 18.5833 73.9708C24.6458 49.7229 47.9438 50.6708 47.9438 50.6708V50.6708Z" fill="#77B255"/>
<path d="M28.8125 34.5708C27.2979 42.1479 18.2042 54.2708 18.2042 54.2708L36.3875 36.0875C42.4479 30.0271 28.8125 34.5708 28.8125 34.5708V34.5708ZM54.5729 48.2083C54.5729 48.2083 31.8437 49.7229 18.2042 60.3312C34.8729 43.6625 42.45 42.1479 42.45 42.1479L54.5729 48.2083V48.2083Z" fill="#5C913B"/>
<path d="M62.825 58.7333C63.5353 58.7861 64.2485 58.6853 64.9164 58.438C65.5843 58.1907 66.1912 57.8026 66.6958 57.3C67.6334 56.3623 68.1602 55.0906 68.1602 53.7646C68.1602 52.4386 67.6334 51.1668 66.6958 50.2292C66.5187 50.0521 66.3208 49.9083 66.125 49.7625C67.0096 49.5515 67.8191 49.101 68.4646 48.4604C69.084 47.8349 69.5249 47.0552 69.7417 46.2021C70.5945 45.9846 71.374 45.5437 72 44.925C72.9376 43.9873 73.4643 42.7156 73.4643 41.3896C73.4643 40.0636 72.9376 38.7918 72 37.8542C72.6416 37.2124 73.0964 36.408 73.3157 35.5274C73.535 34.6468 73.5105 33.7231 73.2448 32.8553C72.9791 31.9876 72.4822 31.2085 71.8075 30.6016C71.1327 29.9948 70.3055 29.583 69.4146 29.4104C69.867 28.4795 70.0187 27.4309 69.8485 26.4099C69.6782 25.389 69.1946 24.4463 68.4646 23.7125C67.8191 23.0719 67.0096 22.6214 66.125 22.4104C66.3208 22.2646 66.5187 22.1208 66.6958 21.9437C67.6334 21.0061 68.1602 19.7344 68.1602 18.4083C68.1602 17.0823 67.6334 15.8106 66.6958 14.8729C65.9626 14.1421 65.0198 13.6579 63.9986 13.4876C62.9775 13.3174 61.9286 13.4695 60.9979 13.9229C60.7679 12.727 60.1069 11.6572 59.1403 10.9164C58.1737 10.1756 56.9687 9.81538 55.7542 9.90417C55.8069 9.19391 55.7062 8.48062 55.4588 7.81273C55.2115 7.14483 54.8234 6.53797 54.3208 6.03333C53.3832 5.09572 52.1114 4.56898 50.7854 4.56898C49.4594 4.56898 48.1877 5.09572 47.25 6.03333C46.5167 5.30251 45.574 4.81831 44.5528 4.64805C43.5316 4.4778 42.4828 4.62994 41.5521 5.08333C41.3308 3.94391 40.7201 2.91696 39.8245 2.17857C38.929 1.44018 37.8044 1.03636 36.6437 1.03636C35.483 1.03636 34.3585 1.44018 33.463 2.17857C32.5674 2.91696 31.9566 3.94391 31.7354 5.08333C30.8045 4.63087 29.7559 4.47923 28.7349 4.64945C27.714 4.81968 26.7713 5.30332 26.0375 6.03333C25.3969 6.67884 24.9464 7.48829 24.7354 8.37292C24.5896 8.17708 24.4458 7.97917 24.2687 7.80208C23.3311 6.86447 22.0594 6.33773 20.7333 6.33773C19.4073 6.33773 18.1356 6.86447 17.1979 7.80208C16.4666 8.53454 15.9817 9.4767 15.8107 10.4975C15.6397 11.5184 15.791 12.5671 16.2437 13.4979C15.3528 13.6705 14.5256 14.0823 13.8508 14.6891C13.1761 15.296 12.6792 16.0751 12.4135 16.9428C12.1478 17.8106 12.1233 18.7343 12.3426 19.6149C12.5619 20.4955 13.0167 21.2999 13.6583 21.9417C14.3271 22.6104 15.1417 23.0333 15.9979 23.2437C15.8021 23.3896 15.6042 23.5333 15.4271 23.7104C14.7855 24.3522 14.3306 25.1566 14.1114 26.0372C13.8921 26.9178 13.9166 27.8415 14.1823 28.7093C14.448 29.577 14.9448 30.3561 15.6196 30.963C16.2943 31.5698 17.1215 31.9816 18.0125 32.1542C17.56 33.0851 17.4084 34.1337 17.5786 35.1547C17.7488 36.1756 18.2325 37.1183 18.9625 37.8521C19.6958 38.5829 20.6385 39.0671 21.6597 39.2374C22.6809 39.4076 23.7297 39.2555 24.6604 38.8021C24.8393 39.7387 25.2847 40.6038 25.9433 41.2934C26.6019 41.983 27.4455 42.4678 28.3729 42.6896C28.1771 42.8354 27.9792 42.9792 27.8021 43.1562C26.8645 44.0939 26.3377 45.3656 26.3377 46.6917C26.3377 48.0177 26.8645 49.2894 27.8021 50.2271C28.5353 50.9579 29.4781 51.4421 30.4993 51.6124C31.5204 51.7826 32.5693 51.6305 33.5 51.1771C33.6305 51.8554 33.9009 52.4992 34.2939 53.0673C34.6869 53.6354 35.194 54.1155 35.7827 54.4769C36.3714 54.8382 37.029 55.0731 37.7135 55.1664C38.3979 55.2597 39.0943 55.2094 39.7583 55.0187C39.8917 55.1937 40.0167 55.3708 40.1771 55.5312C41.2396 56.5937 42.6583 57.0562 44.0479 56.9646C43.9952 57.6748 44.0959 58.3881 44.3432 59.056C44.5905 59.7239 44.9787 60.3308 45.4812 60.8354C46.4189 61.773 47.6906 62.2998 49.0167 62.2998C50.3427 62.2998 51.6144 61.773 52.5521 60.8354C52.7292 60.6583 52.8729 60.4604 53.0187 60.2646C53.2292 61.1208 53.6521 61.9354 54.3208 62.6042C55.2585 63.5418 56.5302 64.0685 57.8562 64.0685C59.1823 64.0685 60.454 63.5418 61.3917 62.6042C62.4542 61.5417 62.9167 60.1229 62.825 58.7333V58.7333Z" fill="#3E721D"/>
<path d="M22.75 15.0542C24.5254 15.0542 25.9646 13.6149 25.9646 11.8396C25.9646 10.0642 24.5254 8.625 22.75 8.625C20.9746 8.625 19.5354 10.0642 19.5354 11.8396C19.5354 13.6149 20.9746 15.0542 22.75 15.0542Z" fill="#5C913B"/>
<path d="M31.8438 15.0542C33.6191 15.0542 35.0583 13.6149 35.0583 11.8396C35.0583 10.0642 33.6191 8.625 31.8438 8.625C30.0684 8.625 28.6292 10.0642 28.6292 11.8396C28.6292 13.6149 30.0684 15.0542 31.8438 15.0542Z" fill="#5C913B"/>
<path d="M37.9042 8.99376C39.6795 8.99376 41.1187 7.55454 41.1187 5.77917C41.1187 4.00381 39.6795 2.56459 37.9042 2.56459C36.1288 2.56459 34.6896 4.00381 34.6896 5.77917C34.6896 7.55454 36.1288 8.99376 37.9042 8.99376Z" fill="#5C913B"/>
<path d="M45.4812 13.5396C47.2566 13.5396 48.6958 12.1004 48.6958 10.325C48.6958 8.54963 47.2566 7.11041 45.4812 7.11041C43.7059 7.11041 42.2667 8.54963 42.2667 10.325C42.2667 12.1004 43.7059 13.5396 45.4812 13.5396Z" fill="#5C913B"/>
<path d="M51.5417 13.5396C53.317 13.5396 54.7563 12.1004 54.7563 10.325C54.7563 8.54963 53.317 7.11041 51.5417 7.11041C49.7663 7.11041 48.3271 8.54963 48.3271 10.325C48.3271 12.1004 49.7663 13.5396 51.5417 13.5396Z" fill="#5C913B"/>
<path d="M53.0583 18.0854C54.8337 18.0854 56.2729 16.6462 56.2729 14.8708C56.2729 13.0955 54.8337 11.6562 53.0583 11.6562C51.283 11.6562 49.8438 13.0955 49.8438 14.8708C49.8438 16.6462 51.283 18.0854 53.0583 18.0854Z" fill="#5C913B"/>
<path d="M57.6042 19.6C59.3795 19.6 60.8187 18.1608 60.8187 16.3854C60.8187 14.6101 59.3795 13.1708 57.6042 13.1708C55.8288 13.1708 54.3896 14.6101 54.3896 16.3854C54.3896 18.1608 55.8288 19.6 57.6042 19.6Z" fill="#5C913B"/>
<path d="M63.6646 22.6313C65.44 22.6313 66.8792 21.192 66.8792 19.4167C66.8792 17.6413 65.44 16.2021 63.6646 16.2021C61.8892 16.2021 60.45 17.6413 60.45 19.4167C60.45 21.192 61.8892 22.6313 63.6646 22.6313Z" fill="#5C913B"/>
<path d="M62.15 27.1771C63.9254 27.1771 65.3646 25.7379 65.3646 23.9625C65.3646 22.1871 63.9254 20.7479 62.15 20.7479C60.3746 20.7479 58.9354 22.1871 58.9354 23.9625C58.9354 25.7379 60.3746 27.1771 62.15 27.1771Z" fill="#5C913B"/>
<path d="M66.6958 34.7542C68.4712 34.7542 69.9104 33.3149 69.9104 31.5396C69.9104 29.7642 68.4712 28.325 66.6958 28.325C64.9205 28.325 63.4813 29.7642 63.4813 31.5396C63.4813 33.3149 64.9205 34.7542 66.6958 34.7542Z" fill="#5C913B"/>
<path d="M68.2104 42.3312C69.9858 42.3312 71.425 40.892 71.425 39.1167C71.425 37.3413 69.9858 35.9021 68.2104 35.9021C66.4351 35.9021 64.9958 37.3413 64.9958 39.1167C64.9958 40.892 66.4351 42.3312 68.2104 42.3312Z" fill="#5C913B"/>
<path d="M56.0875 27.1771C57.8629 27.1771 59.3021 25.7379 59.3021 23.9625C59.3021 22.1871 57.8629 20.7479 56.0875 20.7479C54.3121 20.7479 52.8729 22.1871 52.8729 23.9625C52.8729 25.7379 54.3121 27.1771 56.0875 27.1771Z" fill="#5C913B"/>
<path d="M50.0271 21.1167C51.8024 21.1167 53.2417 19.6774 53.2417 17.9021C53.2417 16.1267 51.8024 14.6875 50.0271 14.6875C48.2517 14.6875 46.8125 16.1267 46.8125 17.9021C46.8125 19.6774 48.2517 21.1167 50.0271 21.1167Z" fill="#5C913B"/>
<path d="M42.45 16.5708C44.2254 16.5708 45.6646 15.1316 45.6646 13.3562C45.6646 11.5809 44.2254 10.1417 42.45 10.1417C40.6746 10.1417 39.2354 11.5809 39.2354 13.3562C39.2354 15.1316 40.6746 16.5708 42.45 16.5708Z" fill="#5C913B"/>
<path d="M33.3583 19.6C35.1337 19.6 36.5729 18.1608 36.5729 16.3854C36.5729 14.6101 35.1337 13.1708 33.3583 13.1708C31.583 13.1708 30.1438 14.6101 30.1438 16.3854C30.1438 18.1608 31.583 19.6 33.3583 19.6Z" fill="#5C913B"/>
<path d="M36.3896 16.5708C38.1649 16.5708 39.6042 15.1316 39.6042 13.3562C39.6042 11.5809 38.1649 10.1417 36.3896 10.1417C34.6142 10.1417 33.175 11.5809 33.175 13.3562C33.175 15.1316 34.6142 16.5708 36.3896 16.5708Z" fill="#5C913B"/>
<path d="M27.2958 22.6313C29.0712 22.6313 30.5104 21.192 30.5104 19.4167C30.5104 17.6413 29.0712 16.2021 27.2958 16.2021C25.5205 16.2021 24.0813 17.6413 24.0813 19.4167C24.0813 21.192 25.5205 22.6313 27.2958 22.6313Z" fill="#5C913B"/>
<path d="M42.45 25.6625C44.2254 25.6625 45.6646 24.2233 45.6646 22.4479C45.6646 20.6726 44.2254 19.2333 42.45 19.2333C40.6746 19.2333 39.2354 20.6726 39.2354 22.4479C39.2354 24.2233 40.6746 25.6625 42.45 25.6625Z" fill="#5C913B"/>
<path d="M53.0583 36.2687C54.8337 36.2687 56.2729 34.8295 56.2729 33.0542C56.2729 31.2788 54.8337 29.8396 53.0583 29.8396C51.283 29.8396 49.8438 31.2788 49.8438 33.0542C49.8438 34.8295 51.283 36.2687 53.0583 36.2687Z" fill="#5C913B"/>
<path d="M56.0875 45.3625C57.8629 45.3625 59.3021 43.9233 59.3021 42.1479C59.3021 40.3726 57.8629 38.9333 56.0875 38.9333C54.3121 38.9333 52.8729 40.3726 52.8729 42.1479C52.8729 43.9233 54.3121 45.3625 56.0875 45.3625Z" fill="#5C913B"/>
</svg>
